# xmcd
#
# Track frame offsets:
#	150
#	14225
#	28864
#	45453
#	60525
#	73117
#	88035
#	103036
#	116888
#	130086
#	143011
#	158911
#
# Disc length: 2265 seconds
#
# Revision: 1
# Processed by: cddbd v1.5.2PL0 Copyright (c) Steve Scherf et al.
# Submitted via: EZCDAudioConverter 5.1.2.1
#
DISCID=aa08d70c
DTITLE=Christine Perfect - Christine Perfect (Vinyl)
DYEAR=1970
DGENRE=Blues
TTITLE0=Crazy 'bout You
TTITLE1=I'm On My Way
TTITLE2=Let Me Go (Leave Me Alone)
TTITLE3=Wait And See
TTITLE4=Close To Me
TTITLE5=I'd Rather Go Blind
TTITLE6=When You Say
TTITLE7=And That's Saying A Lot
TTITLE8=No Road Is The Right Road
TTITLE9=For You
TTITLE10=I'm Too Far Gone (To Turn Around)
TTITLE11=I Want You
EXTD=
EXTT0=
EXTT1=
EXTT2=
EXTT3=
EXTT4=
EXTT5=
EXTT6=
EXTT7=
EXTT8=
EXTT9=
EXTT10=
EXTT11=
PLAYORDER=
